<svg width="65" height="43" viewBox="0 0 65 43" fill="none" xmlns="http://www.w3.org/2000/svg">
<g clip-path="url(#clip0_2_2)">
<path d="M21.6654 42.9447C25.6198 42.9447 29.3143 41.8941 32.4889 40.0694C26.0097 36.3463 21.6654 29.3978 21.6654 21.4355C21.6654 13.4732 26.0282 6.52465 32.4889 2.80154C29.2957 0.995285 25.6012 -0.055294 21.6654 -0.055294C9.69097 -0.055294 0 9.5658 0 21.4539C0 33.3421 9.69097 42.9631 21.6654 42.9631V42.9447Z" fill="#009FE3"/>
<path d="M43.3123 0C39.358 0 35.6635 1.05058 32.4889 2.87527C38.9681 6.59837 43.3123 13.5469 43.3123 21.5092C43.3123 29.4715 38.9495 36.4201 32.4889 40.1432C35.6821 41.9679 39.3765 43.0184 43.3123 43.0184C55.2682 43.0184 64.9778 33.3973 64.9778 21.5092C64.9778 9.62109 55.2868 0 43.3123 0Z" fill="#E5007E"/>
<path d="M43.3123 21.5092C43.3123 13.5469 38.9495 6.59837 32.4889 2.87527C26.0097 6.59837 21.6654 13.5469 21.6654 21.5092C21.6654 29.4715 26.0282 36.4201 32.4889 40.1432C38.9681 36.4201 43.3123 29.4715 43.3123 21.5092Z" fill="#2E3192"/>
<path d="M6.81339 22.0437V17.8967H7.35177V21.9884C7.35177 23.6657 8.26146 24.6241 9.76523 24.6241C11.269 24.6241 12.1416 23.7578 12.1416 22.0437V17.8967H12.68V21.9884C12.68 24.0343 11.4918 25.1033 9.74667 25.1033C8.00155 25.1033 6.81339 24.0343 6.81339 22.0437Z" fill="white"/>
<path d="M14.7592 17.8967H15.2978V24.9927H14.7592V17.8967Z" fill="white"/>
<path d="M47.3966 22.0437V17.8967H47.935V21.9884C47.935 23.6657 48.8447 24.6241 50.3485 24.6241C51.8523 24.6241 52.7248 23.7578 52.7248 22.0437V17.8967H53.2632V21.9884C53.2632 24.0343 52.075 25.1033 50.3299 25.1033C48.5848 25.1033 47.3966 24.0343 47.3966 22.0437Z" fill="white"/>
<path d="M60.8563 17.8967L58.1087 21.3802L60.9492 24.9927H60.3179L57.7745 21.712L55.2497 24.9927H54.6185L57.4589 21.3802L54.7299 17.8967H55.3611L57.7931 21.03L60.2251 17.8967H60.8563Z" fill="white"/>
<path d="M26.8637 21.5092H38.1141" stroke="white" stroke-miterlimit="10"/>
</g>
<defs>
<clipPath id="clip0_2_2">
<rect width="64.9778" height="43" fill="white"/>
</clipPath>
</defs>
</svg>
